<svg xmlns="http://www.w3.org/2000/svg" width="20.292" height="16.603" viewBox="0 0 20.292 16.603">
  <path id="shape" d="M11.146,19.6C6.067,19.6,1,15.053,1,11.3S6.067,3,11.146,3s10.146,4.55,10.146,8.3S16.226,19.6,11.146,19.6Zm0-1.845c4.1,0,8.3-3.771,8.3-6.457s-4.2-6.457-8.3-6.457-8.3,3.771-8.3,6.457S7.044,17.758,11.146,17.758Zm0-2.306A4.151,4.151,0,1,1,15.3,11.3,4.151,4.151,0,0,1,11.146,15.452Zm0-1.845A2.306,2.306,0,1,0,8.84,11.3,2.306,2.306,0,0,0,11.146,13.607Z" transform="translate(-1 -3)"/>
</svg>
