<svg xmlns="http://www.w3.org/2000/svg" width="22" height="19.79" viewBox="0 0 22 19.79">
  <path id="shape" d="M12,4.457A6.4,6.4,0,0,1,17,2a5.928,5.928,0,0,1,6,6.236c0,4.314-3.332,8.687-9.863,13.2a2,2,0,0,1-2.274,0C4.332,16.923,1,12.55,1,8.236A5.928,5.928,0,0,1,7,2,6.4,6.4,0,0,1,12,4.457Zm-.782,2.166C9.8,4.844,8.632,4,7,4A3.937,3.937,0,0,0,3,8.236c0,3.5,2.955,7.377,9,11.553,6.045-4.176,9-8.054,9-11.553A3.937,3.937,0,0,0,17,4c-1.632,0-2.8.844-4.218,2.623A1,1,0,0,1,11.218,6.623Z" transform="translate(-1 -2)"/>
</svg>
