<svg xmlns="http://www.w3.org/2000/svg" width="15" height="14.474" viewBox="0 0 15 14.474">
  <path id="shape" d="M8.91,14.522,6.576,15.748a2.125,2.125,0,0,1-3.083-2.24l.446-2.6L2.051,9.07A2.125,2.125,0,0,1,3.229,5.446l2.609-.379L7,2.7a2.125,2.125,0,0,1,3.81,0l1.167,2.364,2.609.379A2.125,2.125,0,0,1,15.768,9.07L13.88,10.91l.446,2.6a2.125,2.125,0,0,1-3.083,2.24Zm-.33-1.427a.708.708,0,0,1,.659,0l2.663,1.4a.708.708,0,0,0,1.028-.747l-.509-2.965a.708.708,0,0,1,.2-.627l2.154-2.1a.708.708,0,0,0-.392-1.208l-2.977-.433a.708.708,0,0,1-.533-.387L9.545,3.33a.708.708,0,0,0-1.27,0l-1.332,2.7a.708.708,0,0,1-.533.387l-2.977.433A.708.708,0,0,0,3.04,8.056l2.154,2.1a.708.708,0,0,1,.2.627l-.509,2.965a.708.708,0,0,0,1.028.747Z" transform="translate(-1.41 -1.518)" fill="#413232"/>
</svg>
